<svg id="Layer_1" data-name="Layer 1" xmlns="http://www.w3.org/2000/svg" viewBox="0 0 249.9 157.2">
  <defs>
    <style>
      .cls-1{fill:#011627}.cls-2{fill:#fff}
    </style>
  </defs>
  <path class="cls-1" d="M723.8 311.4c-10.9 7.8-31.1 5.8-44.3 4.4-55.5-4.1-74 20.8-74 20.8s-4.3-17.2-28-24.3c-38.3-16.9-57.3-16.2-62.5-17.7s-14-17-15.9-12.8c-6.2 23.4 15 51.1 15 51.1 9.7 14.6 27.3 23 36.5 30.6s23.5 12.4 29 18.8c.5 7.4 6.3 13 6.3 13 2.3 7.3-.5 22-.5 22l-.8 12a49.8 49.8 0 006.3-5s8.1 10.7 21.4 6.6c-1.2-9.6-3.5-29.4-1-32.5a27.1 27.1 0 0012-13.6 182.5 182.5 0 0133.5-11c19-4.4 30.7-12.4 44-19s23.3-21.8 23.3-21.8 3.8-4.9 5.9-15.1-3.4-8.5-6.2-6.5z" transform="translate(-483.8 -281.1)"/>
  <path class="cls-2" d="M610.5 343.1a123.7 123.7 0 002.1 16c1.2 6.2 2.8 14.4 8.1 18.4.8.6 1.6-.7.8-1.3-5.4-4.1-6.7-13.3-7.8-19.5a121.4 121.4 0 01-1.6-13.6c0-1-1.6-1-1.6 0zM597.8 339.1a146.2 146.2 0 01-3 14.8c-1.9 7.3-4.1 17.5-10.5 22.3-.8.6 0 2 .8 1.4 6-4.5 8.4-13.3 10.3-20.1a142.7 142.7 0 003.9-18c.1-1-1.4-1.4-1.5-.4zM603.7 358.1q-.1 16.6-.6 33.2c-.5 15-.1 31.1-3.2 46-.2 1 1.3 1.4 1.5.4 3-14.7 2.7-30.4 3.2-45.3q.5-17.2.6-34.3a.8.8 0 00-1.5 0z" transform="translate(-483.8 -281.1)"/>
  <path class="cls-2" d="M619.4 358.2a30 30 0 00-1.5 7.2c0 .7 1.2.7 1.2 0a28.7 28.7 0 011.5-6.8c.2-.8-1-1.1-1.2-.4zM623 360.5a38.1 38.1 0 00-2.3 10c0 .8 1.2.8 1.2 0a37.2 37.2 0 012.3-9.7c.3-.7-1-1-1.2-.3zM627.3 362a76.8 76.8 0 00-3.4 11c-.2.7 1 1 1.2.3a76.8 76.8 0 013.4-11c.3-.7-1-1-1.2-.2zM632.5 362.8a39.4 39.4 0 01-3.7 9.1.6.6 0 001.1.7 40.4 40.4 0 003.8-9.5.6.6 0 00-1.2-.4zM639.3 362.5a27 27 0 01-4.4 7.4c-.5.7.4 1.5.9 1a29 29 0 004.7-8c.3-.8-.9-1-1.2-.4zM647.3 358.1a39.2 39.2 0 01-5.5 10c-.5.6.6 1.3 1 .6a40.3 40.3 0 005.7-10.2c.3-.8-.9-1.1-1.2-.4zM655.6 359.6a35.5 35.5 0 01-4.1 6.3c-.5.6.4 1.5.9.9a37.6 37.6 0 004.3-6.5c.3-.7-.7-1.4-1.1-.7zM665 358.5l-4.3 4c-.6.5.3 1.3.9.8 1.4-1.2 2.9-2.5 4.2-3.9.6-.6-.3-1.4-.9-.9zM672.6 356.5a22.8 22.8 0 00-3.2 2.8c-.6.6.3 1.5.9.9a22.4 22.4 0 013-2.6c.6-.5 0-1.6-.7-1.1zM683.2 355.2a.6.6 0 000-1.2.6.6 0 000 1.2zM617.4 382.7c-.3 3.2-3.1 6.5-5 9-.5.6.6 1.2 1 .6 2.2-2.7 4.8-6.1 5.2-9.6.1-.8-1.1-.8-1.2 0zM615.3 379.8a17.2 17.2 0 01-3.7 7.8c-.5.6.4 1.5.9.9a18.6 18.6 0 004-8.4c.1-.8-1-1.1-1.2-.3zM612.7 378.9a8.3 8.3 0 01-2 4.4c-.5.6.4 1.5 1 .9a9.5 9.5 0 002.2-5c0-.8-1.1-1.1-1.2-.3zM611.3 375.7l-1.2 4a.6.6 0 001.2.4l1.2-4a.6.6 0 00-1.2-.4zM597.8 381.3a32 32 0 01-5.2 9c-.5.6.4 1.5.9.9a33.8 33.8 0 005.4-9.5c.3-.8-.9-1.1-1.1-.4zM598.8 371.2a82.5 82.5 0 00-9.7 18.7c-.3.8 1 1 1.2.4a81 81 0 019.6-18.5c.5-.6-.6-1.3-1-.6zM591 378a76.5 76.5 0 01-3.9 8.2c-.4.7.7 1.4 1 .7a82 82 0 004-8.6c.3-.7-.9-1-1.2-.3zM595 372.3a15.3 15.3 0 01-2 3c-.6.6.3 1.5.8.9a16.5 16.5 0 002.3-3.3c.3-.7-.7-1.4-1.1-.7zM588.1 378.4a33.3 33.3 0 00-3.3 5.4c-.3.7.8 1.3 1.1.6a32.2 32.2 0 013.3-5.4c.5-.6-.6-1.3-1-.6zM586 371a8.8 8.8 0 00-2.7 2.3c-.5.7.6 1.3 1 .7a7.2 7.2 0 012.2-2 .6.6 0 00-.6-1zM585.5 368.2a19.5 19.5 0 00-5.6 4.7c-.5.6.4 1.5.9.9a18.5 18.5 0 015.4-4.5c.6-.4 0-1.5-.7-1.1zM584.9 364.5a22.5 22.5 0 00-7.6 6.1c-.5.6.4 1.5.9.9a21.9 21.9 0 017.3-6c.7-.3 0-1.4-.6-1zM581.2 363a34.9 34.9 0 00-8 4.9c-.7.5.2 1.4.8.9a33.6 33.6 0 017.8-4.7c.8-.3.1-1.4-.6-1.1zM576.4 360.2q-3.4 3.3-7 6.4c-.6.5.3 1.4.9.9q3.6-3.1 7-6.4c.6-.6-.3-1.5-.9-.9zM572.8 360.2a25.2 25.2 0 01-7.2 4c-.8.3-.4 1.5.3 1.2a27.5 27.5 0 007.8-4.3c.6-.5-.3-1.4-1-.9zM571 359a23.8 23.8 0 00-6.4 2.4c-.7.4 0 1.5.6 1.1a22.7 22.7 0 016.1-2.3c.8-.2.5-1.4-.3-1.2zM563.4 358.2l-3.2 1c-.7.3-.4 1.5.4 1.2l3-1c.8-.2.5-1.4-.2-1.2zM547 349.2a5.7 5.7 0 00.5 3.6c.4.7 1.4.1 1-.6a4.3 4.3 0 01-.3-2.7c.1-.8-1-1-1.2-.3zM550 350.6a10.4 10.4 0 010 2.6c-.2.8 1 1.1 1.1.3a11.7 11.7 0 00.1-3c0-.8-1.3-.8-1.2 0zM553.6 352a4.8 4.8 0 01-1.1 2.1c-.6.6.3 1.5.8.9a6.1 6.1 0 001.5-2.7.6.6 0 00-1.2-.3zM556.5 353.8a8.3 8.3 0 00-1.5 1.9.6.6 0 001 .6 7.4 7.4 0 011.4-1.6c.5-.6-.3-1.5-1-1zM558.6 357.8l2.1-1.3a.6.6 0 00-.6-1l-2.1 1.2a.6.6 0 00.6 1zM606.1 340.3a22 22 0 01-2.5 6.3.6.6 0 001 .7 22.8 22.8 0 002.7-6.6c.2-.8-1-1.1-1.2-.4zM606.8 346.5l-3.6 5.7c-.5.6.6 1.2 1 .6 1.3-1.9 2.5-3.7 3.6-5.7a.6.6 0 00-1-.6zM607.5 350.8a9 9 0 00-1.4 3c-.2.9 1 1.2 1.2.4a8 8 0 011.3-2.8c.4-.7-.6-1.3-1.1-.6zM535.8 343a.6.6 0 000-1.2.6.6 0 000 1.3zM537.3 343.6a2.6 2.6 0 01.2.8.6.6 0 001.2 0 3.5 3.5 0 00-.2-1.2c-.3-.7-1.5-.4-1.2.4zM539.6 344.8a5.8 5.8 0 00.1 1.9.6.6 0 001.2-.4 4.9 4.9 0 01-.1-1.5c0-.8-1.2-.8-1.2 0zM541.9 346.2l.4 2.5c0 .8 1.3.4 1.2-.4l-.4-2.5c-.1-.8-1.3-.4-1.2.4zM544 347.4l.5 3.7c0 .8 1.3.8 1.2 0l-.4-3.7c0-.8-1.3-.8-1.2 0zM650.4 361.6a32.3 32.3 0 01-3.1 5.3c-.5.6.6 1.3 1 .6a33 33 0 003.2-5.3c.3-.7-.8-1.4-1.1-.6zM657.5 361.5a17.6 17.6 0 00-2.6 3.3c-.4.7.7 1.3 1.1.6a16.7 16.7 0 012.4-3c.6-.5-.3-1.4-.9-.8zM674.6 358.7a7.6 7.6 0 001.8-1.3c.6-.5-.3-1.4-.8-.8a6.2 6.2 0 01-1.6 1c-.7.4 0 1.5.6 1.1zM678.8 356.8a8.2 8.2 0 001.2-1.2c.6-.6-.3-1.5-.8-.9a6.2 6.2 0 01-1 1c-.7.5 0 1.6.6 1zM666.8 361.2l1.2-1.3c.5-.6-.3-1.5-.9-1l-1.2 1.4c-.6.6.3 1.5.9.9z" transform="translate(-483.8 -281.1)"/>
  <path class="cls-1" d="M484 421.2a26 26 0 009.4 11.2c9.7 6.1 20 0 27.4-6.9.8-.7-.7-2.8-1.4-2.1-6.8 6.4-16.7 12.8-25.9 7a22 22 0 01-8-9.5c-.5-1.1-2.2-1.3-1.5.3z" transform="translate(-483.8 -281.1)"/>
  <path class="cls-1" d="M519 424.3a23.5 23.5 0 0012.8 9.5c10.8 3 19-4.3 25-12.5 0 0-2.1-1-2.5-.5-5.8 8-15.4 17.4-25.8 10.8a24.6 24.6 0 01-7.2-7c-.3-.5-2.4-.3-2.4-.3z" transform="translate(-483.8 -281.1)"/>
  <path class="cls-1" d="M554.4 421a25 25 0 0010.3 11.6c10 5.4 20-.7 27.3-7.5.9-.8-1.4-2-2.1-1.3-7 6.6-17.3 13-26.3 6.1a23.4 23.4 0 01-6.9-8.8c-.4-.9-2.8-1.2-2.3 0z" transform="translate(-483.8 -281.1)"/>
  <path class="cls-1" d="M590 424.7a23.3 23.3 0 0011.6 7.7c10 3 19.1-2.9 26-9.9.7-.8-1.5-1.8-2.2-1.1-6.4 6.6-15.4 12.8-25 9a20 20 0 01-8.3-6.1c-.6-.8-3-.8-2 .4z" transform="translate(-483.8 -281.1)"/>
  <path class="cls-1" d="M625.2 421.8a23.6 23.6 0 0010.3 11c10 5 20-1 27.4-7.9.6-.6-1.6-1.5-2.2-1-7 6.6-17.4 13.4-26.5 6.5a22.9 22.9 0 01-6.6-8.3c-.3-.8-2.7-1-2.4-.4z" transform="translate(-483.8 -281.1)"/>
  <path class="cls-1" d="M660.8 425a26.4 26.4 0 0013 8.5c10.4 2.8 18.7-4 24.6-12 .8-1.2-1.5-2-2.3-.9-5.8 8-14.3 14.4-24.3 10a25.1 25.1 0 01-9-6.8c-.8-1-3 0-2.1 1.2z" transform="translate(-483.8 -281.1)"/>
  <path class="cls-1" d="M696.2 420.4a26.7 26.7 0 009.6 11.2c10 6.5 20.1.8 27.9-6.4.2-.2-1.7-1.8-2-1.5-6.5 6-16 12.6-25 7.7-3.7-2-6.8-5.9-8.4-9.7-.3-.6-2.1-1.2-2.1-1.3z" transform="translate(-483.8 -281.1)"/>
</svg>
