<svg id="Layer_1" data-name="Layer 1" xmlns="http://www.w3.org/2000/svg" viewBox="0 0 497.92 15.73"><defs><style>.cls-1{fill:#011627;}</style></defs><title>wave</title><path class="cls-1" d="M288.91,428.19a26.05,26.05,0,0,0,9.46,11.18c9.76,6.16,20,.1,27.44-6.86.76-.71-.68-2.77-1.38-2.12-6.85,6.4-16.7,12.83-25.9,7a21.92,21.92,0,0,1-8-9.46c-.52-1.17-2.26-1.33-1.57.22Z" transform="translate(-288.75 -427.06)"/><path class="cls-1" d="M323.91,431.28a23.53,23.53,0,0,0,12.89,9.52c10.75,2.95,18.95-4.25,25-12.48,0,0-2.13-1-2.49-.48-5.85,8-15.43,17.32-25.78,10.74a24.64,24.64,0,0,1-7.18-6.95c-.34-.51-2.41-.34-2.42-.35Z" transform="translate(-288.75 -427.06)"/><path class="cls-1" d="M359.38,428.06a24.92,24.92,0,0,0,10.34,11.51c9.91,5.41,20-.63,27.32-7.5.81-.76-1.42-1.92-2.15-1.23-7.07,6.6-17.3,13-26.32,6.07a23.44,23.44,0,0,1-6.87-8.81c-.39-.87-2.84-1.21-2.32,0Z" transform="translate(-288.75 -427.06)"/><path class="cls-1" d="M395,431.66a23.32,23.32,0,0,0,11.57,7.74c10.1,3,19.15-2.89,26-9.88.76-.78-1.51-1.86-2.18-1.17-6.44,6.62-15.37,12.8-24.93,9.09a20,20,0,0,1-8.39-6.19c-.58-.75-2.94-.77-2,.41Z" transform="translate(-288.75 -427.06)"/><path class="cls-1" d="M430.17,428.75a23.58,23.58,0,0,0,10.38,11c10,5.07,20-.95,27.39-7.85.6-.56-1.67-1.51-2.26-.95-7,6.56-17.37,13.37-26.45,6.41a22.88,22.88,0,0,1-6.63-8.28c-.34-.74-2.73-1-2.43-.36Z" transform="translate(-288.75 -427.06)"/><path class="cls-1" d="M465.75,432a26.38,26.38,0,0,0,13,8.54c10.42,2.8,18.79-4.11,24.6-12.06.89-1.2-1.49-1.92-2.24-.88-5.81,7.92-14.27,14.45-24.29,10a25.1,25.1,0,0,1-8.95-6.76c-.82-1-3.08,0-2.12,1.17Z" transform="translate(-288.75 -427.06)"/><path class="cls-1" d="M501.19,427.43a26.74,26.74,0,0,0,9.59,11.18c9.94,6.5,20.15.83,27.91-6.42.18-.18-1.67-1.84-2.06-1.47-6.48,6.06-16,12.56-25,7.7-3.68-2-6.69-5.87-8.38-9.69-.29-.64-2.06-1.27-2.08-1.3Z" transform="translate(-288.75 -427.06)"/><path class="cls-1" d="M536.72,431.61A22.18,22.18,0,0,0,546,441c10.12,5.17,20.42-1.61,27.74-8.46.77-.71-.68-2.77-1.38-2.12-6.67,6.24-16.25,13.14-25.75,8.85a19.18,19.18,0,0,1-8.36-7.85c-.58-1.12-2.34-1.29-1.56.22Z" transform="translate(-288.75 -427.06)"/><path class="cls-1" d="M571.87,431.28a23.58,23.58,0,0,0,12.9,9.52c10.74,2.95,18.94-4.25,25-12.48,0,0-2.14-1-2.49-.48-5.86,8-15.43,17.32-25.78,10.74a24.8,24.8,0,0,1-7.19-6.95c-.34-.51-2.41-.34-2.42-.35Z" transform="translate(-288.75 -427.06)"/><path class="cls-1" d="M607.34,428.06a24.94,24.94,0,0,0,10.35,11.51c9.9,5.41,20-.63,27.31-7.5.81-.76-1.42-1.92-2.14-1.23-7.07,6.6-17.3,13-26.33,6.07a23.54,23.54,0,0,1-6.87-8.81c-.38-.87-2.84-1.21-2.32,0Z" transform="translate(-288.75 -427.06)"/><path class="cls-1" d="M642.91,431.66a23.35,23.35,0,0,0,11.58,7.74c10.1,3,19.14-2.89,26-9.88.76-.78-1.5-1.86-2.18-1.17-6.44,6.62-15.36,12.8-24.93,9.09a20,20,0,0,1-8.38-6.19c-.58-.75-3-.77-2,.41Z" transform="translate(-288.75 -427.06)"/><path class="cls-1" d="M678.14,428.75a23.56,23.56,0,0,0,10.37,11c10,5.07,20-.95,27.4-7.85.6-.56-1.68-1.51-2.27-.95-7,6.56-17.36,13.37-26.44,6.41a22.67,22.67,0,0,1-6.63-8.28c-.34-.74-2.74-1-2.43-.36Z" transform="translate(-288.75 -427.06)"/><path class="cls-1" d="M713.72,432a26.38,26.38,0,0,0,13,8.54c10.42,2.8,18.78-4.11,24.6-12.06.88-1.2-1.49-1.92-2.25-.88-5.8,7.92-14.26,14.45-24.29,10a25.19,25.19,0,0,1-8.95-6.76c-.82-1-3.07,0-2.11,1.17Z" transform="translate(-288.75 -427.06)"/><path class="cls-1" d="M749.16,427.43a26.71,26.71,0,0,0,9.58,11.18c9.94,6.5,20.15.83,27.91-6.42.19-.18-1.67-1.84-2.06-1.47-6.48,6.06-16,12.56-25,7.7-3.67-2-6.68-5.87-8.38-9.69-.28-.64-2.06-1.27-2.07-1.3Z" transform="translate(-288.75 -427.06)"/></svg>