<svg xmlns="http://www.w3.org/2000/svg" viewBox="0 0 21 27">
  <style>
    .st0{fill:#171836}
  </style>
  <g id="cart">
    <path class="st0" d="M17.69 22.45H7.08c-.16 0-.3-.1-.36-.25l-3.63-9.46H.81a.38.38 0 110-.76h2.54c.16 0 .3.1.36.25l3.63 9.46h10.35c.21 0 .38.17.38.38.01.21-.16.38-.38.38zM8.46 26.03a1.62 1.62 0 110-3.24 1.62 1.62 0 010 3.24zm0-2.48a.86.86 0 10.86.86c0-.48-.38-.86-.86-.86zM16.45 26.03a1.62 1.62 0 110-3.24 1.62 1.62 0 010 3.24zm0-2.48a.86.86 0 10.86.86c0-.48-.38-.86-.86-.86z"/>
    <path class="st0" d="M17.8 20.81H8.46c-.16 0-.3-.1-.36-.25l-2.43-6.4a.392.392 0 01.04-.35c.07-.1.19-.17.32-.17h14.01a.384.384 0 01.36.51l-2.24 6.4c-.05.16-.19.26-.36.26z"/>
  </g>
  <path d="M17.74 4.06s0 4.4-2.32 4.4c0 0 2.32 0 2.32 4.17 0 0 0-4.17 2.32-4.17 0 0-2.32 0-2.32-4.4z" fill="#a7f7f2" id="cyan"/>
  <path d="M8.34 3.57s0 4.4-2.32 4.4c0 0 2.32 0 2.32 4.17 0 0 0-4.17 2.32-4.17 0 0-2.32 0-2.32-4.4z" fill="#cc5d64" id="pink"/>
  <path d="M12.98-.14s0 3.21-1.69 3.21c0 0 1.69 0 1.69 3.04 0 0 0-3.04 1.69-3.04 0 .01-1.69.01-1.69-3.21z" fill="#54408a" id="purple"/>
</svg>
