<svg xmlns="http://www.w3.org/2000/svg" viewBox="0 0 100 88">
  <style>
    .st0,.st1,.st2,.st3{fill:#54408a;stroke:#54408a;stroke-width:.2202;stroke-miterlimit:10}.st1,.st2,.st3{fill:none;stroke-width:.4039}.st2,.st3{stroke-width:.367}.st3{stroke-width:.5504}
  </style>
  <g id="text">
    <path class="st0" d="M36.32 34.57c0-.11.06-.17.17-.17h.78c.11 0 .17-.06.17-.17v-6.78c0-.11-.06-.17-.17-.17h-.78c-.11 0-.17-.06-.17-.17 0-.11.06-.17.17-.17h5.28c.11 0 .17.06.17.17v1.56c0 .11-.06.17-.17.17-.11 0-.17-.06-.17-.17v-1.22c0-.11-.06-.17-.17-.17h-3.5c-.11 0-.17.06-.17.17v3c0 .11.06.17.17.17h2.5c.11 0 .17-.06.17-.17v-.55c0-.11.06-.17.17-.17.11 0 .17.06.17.17v1.78c0 .11-.06.17-.17.17-.11 0-.17-.06-.17-.17v-.56c0-.11-.06-.17-.17-.17h-2.5c-.11 0-.17.06-.17.17v3.11c0 .11.06.17.17.17h3.61c.11 0 .17-.06.17-.17v-1.22c0-.11.06-.17.17-.17.11 0 .17.06.17.17v1.56c0 .11-.06.17-.17.17h-5.39c-.11 0-.17-.06-.17-.17zM45.58 29.07c.62 0 1.12.18 1.5.53.38.35.57.79.57 1.31v3.33c0 .11.06.17.17.17h.78c.11 0 .17.06.17.17s-.06.17-.17.17h-1.11c-.11 0-.17-.06-.17-.17v-.62c0-.07-.01-.13-.04-.16s-.07-.01-.13.04c-.2.25-.48.48-.83.69-.36.21-.73.32-1.11.32-.69 0-1.21-.15-1.57-.46-.36-.31-.53-.71-.53-1.19 0-.49.2-.89.61-1.21.41-.31.94-.47 1.61-.47h1.83c.11 0 .17-.06.17-.17v-.45c0-.43-.16-.79-.49-1.07-.33-.29-.73-.43-1.2-.43s-.86.06-1.17.19c-.3.13-.52.24-.64.34-.12.1-.22.1-.28.01-.06-.09-.05-.16.03-.22.52-.43 1.19-.65 2-.65zm1.73 2.94c0-.11-.06-.17-.17-.17h-1.83c-.64 0-1.12.13-1.43.38-.31.25-.46.57-.46.96s.14.71.43.96.72.37 1.29.37c.72 0 1.35-.36 1.9-1.09.1-.13.18-.26.27-.41v-1zM53.61 29.4c-.93 0-1.71.37-2.33 1.1-.18.21-.33.41-.44.62v3.11c0 .11.06.17.17.17h.89c.11 0 .17.06.17.17s-.06.17-.17.17h-2.33c-.11 0-.17-.06-.17-.17s.06-.17.17-.17h.78c.11 0 .17-.06.17-.17v-4.56c0-.11-.06-.17-.17-.17h-.78c-.11 0-.17-.06-.17-.17s.06-.17.17-.17h1.11c.11 0 .17.06.17.17v.88c0 .18.08.19.23.01.27-.31.63-.58 1.07-.82.44-.23.93-.35 1.47-.35h.54c.11 0 .17.06.17.17v1.39c0 .11-.06.17-.17.17-.11 0-.17-.06-.17-.17v-1.06c0-.11-.06-.17-.17-.17h-.21zM58.79 33.96c.07-.07.14-.08.2-.02s.09.11.09.14c.01.04-.02.09-.08.14-.18.18-.36.31-.53.4-.46.16-.72.23-.79.23-.07 0-.1-.01-.11-.01-.52 0-.93-.17-1.22-.5-.3-.33-.44-.81-.44-1.44v-3.22c0-.11-.06-.17-.17-.17h-.78c-.11 0-.17-.06-.17-.17s.06-.17.17-.17h.78c.11 0 .17-.06.17-.17v-1.89c0-.11.06-.17.17-.17.11 0 .17.06.17.17V29c0 .11.06.17.17.17h1.89c.11 0 .17.06.17.17s-.06.17-.17.17H56.4c-.11 0-.17.06-.17.17v3.22c0 .53.12.94.36 1.21s.57.41.98.41c.42-.01.83-.19 1.22-.56zM59.48 34.4h.78c.11 0 .17-.06.17-.17v-6.78c0-.11-.06-.17-.17-.17h-.78c-.11 0-.17-.06-.17-.17 0-.11.06-.17.17-.17h1.11c.11 0 .17.06.17.17v2.84c0 .07.01.13.04.16s.07.01.13-.04c.6-.67 1.25-1.01 1.96-1.01.7 0 1.25.19 1.63.57.38.38.57.93.57 1.65v2.94c0 .11.06.17.17.17h.78c.11 0 .17.06.17.17s-.06.17-.17.17h-2.11c-.11 0-.17-.06-.17-.17s.06-.17.17-.17h.67c.11 0 .17-.06.17-.17v-2.94c0-.63-.16-1.1-.49-1.42-.33-.31-.77-.47-1.33-.47s-1.1.25-1.6.76c-.22.22-.41.47-.58.74v3.33c0 .11.06.17.17.17h.67c.11 0 .17.06.17.17s-.06.17-.17.17H59.5c-.11 0-.17-.06-.17-.17s.04-.16.15-.16zM67.36 34.7a.581.581 0 01-.14-.41c0-.17.05-.31.15-.41.1-.1.23-.15.41-.15.37 0 .56.22.56.67v.17c0 .39-.07.71-.22.98s-.35.46-.61.57c-.04.02-.09.03-.13.03s-.08-.03-.11-.08c-.05-.1-.03-.17.07-.21.45-.2.68-.54.68-1.02v-.09c-.1.06-.2.09-.32.09a.396.396 0 01-.34-.14z"/>
    <g>
      <path class="st0" d="M37.99 40.29h2.11c.11 0 .17.06.17.17 0 .11-.06.17-.17.17h-.67c-.13 0-.16.06-.11.17l1.99 6.42c.01.04.04.07.07.07.03 0 .05-.02.07-.07l1.9-6.76c.04-.11.11-.17.22-.17s.19.06.22.17l1.89 6.76c.01.04.04.07.07.07.03 0 .05-.02.07-.07l1.99-6.42c.06-.11.02-.17-.11-.17h-.67c-.11 0-.17-.06-.17-.17 0-.11.06-.17.17-.17h2.11c.11 0 .17.06.17.17 0 .11-.06.17-.17.17h-.72c-.11 0-.19.06-.22.17l-2.23 7.22c-.03.11-.1.17-.21.17-.11 0-.18-.06-.21-.17l-1.9-6.78c-.01-.04-.04-.07-.08-.07s-.06.02-.08.07l-1.89 6.78c-.04.11-.11.17-.21.17-.1 0-.17-.06-.21-.17l-2.23-7.22c-.03-.11-.1-.17-.22-.17h-.72c-.11 0-.17-.06-.17-.17-.02-.11.04-.17.15-.17zM49.4 47.9c0-.11.06-.17.17-.17h.78c.11 0 .17-.06.17-.17V43c0-.11-.06-.17-.17-.17h-.78c-.11 0-.17-.06-.17-.17s.06-.17.17-.17h1.11c.11 0 .17.06.17.17v4.89c0 .11.06.17.17.17h.78c.11 0 .17.06.17.17s-.06.17-.17.17h-2.22c-.13.01-.18-.05-.18-.16zm.9-6.4a.422.422 0 01-.13-.32c0-.13.04-.23.13-.32.08-.09.19-.13.32-.13s.23.04.32.13c.08.08.13.19.13.32s-.04.23-.13.32-.19.13-.32.13a.537.537 0 01-.32-.13zM52.73 47.74h.78c.11 0 .17-.06.17-.17v-4.56c0-.11-.06-.17-.17-.17h-.78c-.11 0-.17-.06-.17-.17s.06-.17.17-.17h1.11c.11 0 .17.06.17.17v.62c0 .07.01.13.04.16s.07.01.13-.04c.6-.67 1.25-1.01 1.96-1.01.7 0 1.25.19 1.63.57.38.38.57.93.57 1.65v2.94c0 .11.06.17.17.17h.78c.11 0 .17.06.17.17s-.06.17-.17.17h-2.11c-.11 0-.17-.06-.17-.17s.06-.17.17-.17h.67c.11 0 .17-.06.17-.17v-2.94c0-.63-.16-1.1-.49-1.42-.33-.31-.77-.47-1.33-.47s-1.1.25-1.6.76c-.22.22-.42.47-.58.74v3.33c0 .11.06.17.17.17h.67c.11 0 .17.06.17.17s-.06.17-.17.17h-2.11c-.11 0-.17-.06-.17-.17s.04-.16.15-.16zM64.75 40.79c0-.11-.06-.17-.17-.17h-.88c-.11 0-.17-.06-.17-.17 0-.11.06-.17.17-.17h1.22c.11 0 .17.06.17.17v7.11c0 .11.06.17.17.17h.78c.11 0 .17.06.17.17s-.06.17-.17.17h-1.11c-.11 0-.17-.06-.17-.17v-.62c0-.07-.01-.13-.04-.16s-.07-.01-.13.04c-.19.24-.46.47-.82.69-.36.21-.75.32-1.16.32-.79 0-1.4-.26-1.84-.77-.44-.51-.67-1.22-.67-2.11 0-.89.27-1.58.8-2.06.53-.49 1.26-.73 2.21-.73h1.5c.11 0 .17-.06.17-.17v-1.54zm0 2.22c0-.11-.06-.17-.17-.17h-1.5c-.84 0-1.5.21-1.97.62-.47.42-.7 1.02-.7 1.83 0 .8.19 1.43.58 1.88.39.45.89.67 1.51.67s1.18-.25 1.67-.74c.21-.21.4-.46.57-.76v-3.33z"/>
    </g>
    <path class="st0" d="M34.94 53.3a2.245 2.245 0 011.93 1.07c.05.08.03.15-.06.21s-.18.04-.25-.06a2.77 2.77 0 00-.7-.64c-.25-.16-.6-.23-1.03-.23-.44 0-.81.13-1.11.38-.3.26-.45.57-.45.95 0 .48.28 1.04.84 1.67l2.36 2.67c.07.07.13.07.18 0l1.31-1.98c.07-.08.15-.09.24-.03s.1.14.03.23l-1.34 2.01c-.06.08-.05.16.02.24l.8.91c.1.11.19.17.28.17h.73c.11 0 .17.06.17.17s-.06.17-.17.17h-.89c-.1 0-.19-.06-.29-.17l-.83-.94c-.08-.07-.15-.07-.2 0-.7.89-1.6 1.33-2.68 1.33-.63 0-1.15-.19-1.56-.58-.41-.39-.61-.88-.61-1.48s.19-1.09.57-1.46c.38-.37.91-.64 1.61-.81.11-.04.12-.11.01-.23-.26-.31-.48-.62-.65-.92-.17-.3-.26-.62-.26-.97 0-.51.18-.92.53-1.22.36-.31.85-.46 1.47-.46zm-2.94 6c0 .53.17.96.51 1.29.35.33.79.49 1.32.49.96 0 1.77-.41 2.43-1.23.04-.05.07-.1.07-.14 0-.04-.02-.08-.06-.12l-1.93-2.18c-.03-.05-.07-.08-.12-.08-.05 0-.1.01-.16.02-1.37.37-2.06 1.02-2.06 1.95z"/>
    <g>
      <path class="st0" d="M43.79 60.8c0 .11.06.17.17.17h.67c.11 0 .17.06.17.17s-.06.17-.17.17h-2.11c-.11 0-.17-.06-.17-.17s.06-.17.17-.17h.78c.11 0 .17-.06.17-.17v-6.78c0-.11-.06-.17-.17-.17h-.78c-.11 0-.17-.06-.17-.17 0-.11.06-.17.17-.17h3.72c.72 0 1.27.19 1.65.56.38.37.57.89.57 1.56s-.19 1.19-.57 1.56c-.38.37-.93.56-1.65.56h-.06c-.06 0-.1.02-.13.05-.03.03-.02.07.02.12l2.11 2.89c.1.11.19.17.28.17h.72c.11 0 .17.06.17.17s-.06.17-.17.17h-2.22c-.11 0-.17-.06-.17-.17s.06-.17.17-.17h.72c.13 0 .15-.06.06-.17l-2.22-3.06h-1.56c-.11 0-.17.06-.17.17v2.88zm2.44-3.39c.61 0 1.07-.16 1.4-.47.33-.31.49-.75.49-1.31s-.16-1-.49-1.31c-.33-.31-.79-.47-1.4-.47h-2.28c-.11 0-.17.06-.17.17v3.22c0 .11.06.17.17.17h2.28zM52.32 55.63c.62 0 1.12.18 1.5.53s.57.79.57 1.31v3.33c0 .11.06.17.17.17h.78c.11 0 .17.06.17.17s-.06.17-.17.17h-1.11c-.11 0-.17-.06-.17-.17v-.62c0-.07-.01-.13-.04-.16s-.07-.01-.13.04c-.2.25-.48.48-.83.69-.36.21-.73.32-1.11.32-.69 0-1.21-.15-1.57-.46-.36-.31-.53-.71-.53-1.19 0-.49.2-.89.61-1.21.41-.31.94-.47 1.61-.47h1.83c.11 0 .17-.06.17-.17v-.44c0-.43-.16-.79-.49-1.07-.33-.29-.73-.43-1.2-.43s-.86.06-1.17.19c-.3.13-.52.24-.64.34-.12.1-.22.1-.28.01-.06-.09-.05-.16.03-.22.52-.44 1.19-.66 2-.66zm1.73 2.95c0-.11-.06-.17-.17-.17h-1.83c-.64 0-1.12.13-1.43.38-.31.25-.46.57-.46.96s.14.71.43.96.72.37 1.29.37c.72 0 1.35-.36 1.9-1.09.1-.13.19-.26.27-.41v-1zM56.14 61.13c0-.11.06-.17.17-.17h.78c.11 0 .17-.06.17-.17v-4.56c0-.11-.06-.17-.17-.17h-.78c-.11 0-.17-.06-.17-.17s.06-.17.17-.17h1.11c.11 0 .17.06.17.17v4.89c0 .11.06.17.17.17h.78c.11 0 .17.06.17.17s-.06.17-.17.17h-2.22c-.12.01-.18-.05-.18-.16zm.91-6.4a.463.463 0 01-.13-.32c0-.13.04-.23.13-.32.08-.09.19-.13.32-.13s.23.04.32.13c.08.08.13.19.13.32s-.04.23-.13.32-.19.13-.32.13-.24-.05-.32-.13zM59.48 60.96h.78c.11 0 .17-.06.17-.17v-4.56c0-.11-.06-.17-.17-.17h-.78c-.11 0-.17-.06-.17-.17s.06-.17.17-.17h1.11c.11 0 .17.06.17.17v.62c0 .07.01.13.04.16s.07.01.13-.04c.6-.67 1.25-1.01 1.96-1.01.7 0 1.25.19 1.63.57.38.38.57.93.57 1.65v2.94c0 .11.06.17.17.17h.78c.11 0 .17.06.17.17s-.06.17-.17.17h-2.11c-.11 0-.17-.06-.17-.17s.06-.17.17-.17h.67c.11 0 .17-.06.17-.17v-2.94c0-.63-.16-1.1-.49-1.42-.33-.31-.77-.47-1.33-.47s-1.1.25-1.6.76c-.22.22-.41.47-.58.74v3.33c0 .11.06.17.17.17h.67c.11 0 .17.06.17.17s-.06.17-.17.17H59.5c-.11 0-.17-.06-.17-.17s.04-.16.15-.16z"/>
    </g>
    <g>
      <path class="st1" d="M78.99 39.94s0 4.36-3.3 4.36c0 0 3.3 0 3.3 4.13 0 0 0-4.13 3.3-4.13 0 0-3.3 0-3.3-4.36zM21.01 48.42s0-4.36 3.3-4.36c0 0-3.3 0-3.3-4.13 0 0 0 4.13-3.3 4.13 0 .01 3.3.01 3.3 4.36z"/>
    </g>
    <g>
      <path class="st2" d="M57.34 14.83H52.2M50 7.12v5.14M55.87 9.69l-4.4 3.3M42.66 14.83h5.14M44.13 9.69l4.4 3.3"/>
    </g>
    <g>
      <path class="st2" d="M42.66 73.17h5.14M50 80.88v-5.14M44.13 78.31l4.4-3.3M57.34 73.17H52.2M55.87 78.31l-4.4-3.3"/>
    </g>
  </g>
  <path class="st3" d="M12.71 22.47v43.06L50 87.06l37.29-21.53V22.47L50 .94z" id="inner"/>
  <path class="st3" d="M75 .7H25L0 44l25 43.3h50L100 44z" id="outer"/>
</svg>
